<?xml version="1.0" encoding="UTF-8"?>
<svg enable-background="new 0 0 448 512" focusable="false" version="1.1" viewBox="0 0 448 512" xml:space="preserve" xmlns="http://www.w3.org/2000/svg">
<path d="m224 182.6c-41.3 0-74.7 33.3-74.7 74.4s33.5 74.4 74.7 74.3c41.2 0 74.7-33.3 74.7-74.4-0.1-41-33.5-74.3-74.7-74.3zm174.6-57.2c-7.7-19.4-23.1-34.7-42.6-42.4-29.4-11.6-99.4-9-132-9s-102.6-2.7-132.1 9c-19.5 7.7-34.9 23-42.6 42.4-11.6 29.3-9 99.1-9 131.5 0 32.5-2.6 102.2 9.1 131.5 7.7 19.4 23.1 34.7 42.6 42.4 29.4 11.6 99.4 9 132.1 9s102.6 2.7 132-9c19.5-7.7 34.9-23 42.6-42.4 11.7-29.3 9-99.1 9-131.5s2.6-102.1-9.1-131.5zm-174.6 245.9c-63.4 0-114.8-51.2-114.8-114.3s51.3-114.4 114.8-114.4 114.8 51.2 114.8 114.3c0.1 63.1-51.2 114.2-114.5 114.3-0.2 0.1-0.2 0.1-0.3 0.1zm119.5-206.8c-14.8 0-26.8-11.9-26.8-26.7 0-14.7 12-26.7 26.8-26.7s26.8 11.9 26.8 26.7c0.1 14.7-11.9 26.7-26.6 26.7h-0.2zm102.9 184.4c-1.8 35.7-10 67.4-36.2 93.4s-58 34.3-93.8 36c-37 2.1-147.9 2.1-184.8 0-35.9-1.8-67.6-10-93.8-36-26.2-26.1-34.5-57.7-36.2-93.4-2.1-36.8-2.1-147.2 0-184 1.8-35.7 9.9-67.4 36.2-93.4s58.1-34.2 93.8-35.9c37-2.1 147.9-2.1 184.8 0 35.9 1.8 67.7 10 93.8 36 26.1 26.1 34.5 57.7 36.2 93.5 2.1 36.7 2.1 147 0 183.8z"/>
</svg>
