<?xml version="1.0" standalone="no"?>
<!DOCTYPE svg PUBLIC "-//W3C//DTD SVG 20010904//EN"
 "http://www.w3.org/TR/2001/REC-SVG-20010904/DTD/svg10.dtd">
<svg version="1.0" xmlns="http://www.w3.org/2000/svg"
 width="333.000000pt" height="333.000000pt" viewBox="0 0 333.000000 333.000000"
 preserveAspectRatio="xMidYMid meet">
<metadata>
Created by potrace 1.14, written by Peter Selinger 2001-2017
</metadata>
<g transform="translate(0.000000,333.000000) scale(0.100000,-0.100000)"
fill="#000000" stroke="none">
<path d="M615 2408 c-19 -52 -175 -515 -175 -520 0 -5 15 -8 34 -8 33 0 35 2
59 68 l25 67 110 3 111 3 22 -71 23 -70 37 0 37 0 -90 270 -90 270 -49 0 c-31
0 -51 -5 -54 -12z m99 -183 c20 -61 36 -116 36 -123 0 -9 -24 -12 -86 -12 -71
0 -85 3 -81 15 4 8 22 67 42 131 20 64 40 112 45 108 4 -5 24 -59 44 -119z"/>
<path d="M980 2075 l0 -195 35 0 35 0 0 138 c0 133 1 139 24 161 13 13 42 25
65 28 38 5 41 8 41 36 0 29 0 30 -46 24 -28 -3 -54 -13 -69 -27 l-24 -23 -10
27 c-7 16 -18 26 -31 26 -19 0 -20 -6 -20 -195z"/>
<path d="M1280 2075 l0 -195 30 0 30 0 0 103 c1 127 11 175 46 205 38 33 99
28 128 -11 18 -25 21 -45 24 -163 l4 -134 35 0 35 0 -4 138 c-3 115 -7 144
-25 177 -40 76 -134 99 -207 50 l-37 -25 -11 25 c-6 14 -19 25 -30 25 -17 0
-18 -12 -18 -195z"/>
<path d="M1815 2254 c-47 -26 -66 -46 -86 -89 -39 -85 -14 -197 56 -251 47
-35 135 -45 183 -20 36 19 82 65 82 83 0 21 -47 15 -86 -12 -55 -37 -107 -34
-150 9 -21 21 -34 44 -34 60 l0 26 146 0 146 0 -7 47 c-9 63 -27 96 -71 129
-45 35 -132 43 -179 18z m146 -73 c16 -16 29 -39 29 -50 0 -20 -5 -21 -105
-21 -121 0 -129 8 -71 66 46 46 104 48 147 5z"/>
<path d="M1572 1538 c-7 -7 -12 -21 -12 -33 0 -12 5 -26 12 -33 7 -7 21 -12
33 -12 12 0 26 5 33 12 7 7 12 21 12 33 0 12 -5 26 -12 33 -7 7 -21 12 -33 12
-12 0 -26 -5 -33 -12z"/>
<path d="M625 1521 c-129 -59 -191 -197 -150 -337 13 -47 27 -69 70 -111 89
-87 200 -104 303 -48 l42 24 30 -26 c25 -20 33 -23 45 -13 20 17 19 30 -6 57
l-22 22 27 59 c35 79 36 166 2 237 -27 60 -103 131 -155 145 -56 15 -142 12
-186 -9z m201 -76 c75 -44 113 -156 83 -246 -42 -125 -182 -176 -289 -105 -91
60 -109 233 -32 320 55 62 161 76 238 31z"/>
<path d="M1110 1255 c0 -156 13 -203 65 -235 44 -27 117 -27 162 1 l34 21 6
-21 c3 -14 13 -21 29 -21 l24 0 0 195 0 195 -35 0 -35 0 0 -130 c0 -170 -14
-200 -90 -200 -75 0 -91 33 -98 202 l-5 128 -28 0 -29 0 0 -135z"/>
<path d="M1570 1195 l0 -195 35 0 35 0 0 195 0 195 -35 0 -35 0 0 -195z"/>
<path d="M1760 1195 l0 -195 35 0 35 0 0 119 c0 66 4 131 9 144 15 39 51 67
87 67 81 0 94 -28 94 -200 l0 -130 35 0 35 0 0 135 c0 147 -8 183 -53 224 -38
35 -113 40 -168 12 -34 -18 -44 -20 -50 -9 -5 7 -9 16 -9 21 0 4 -11 7 -25 7
l-25 0 0 -195z"/>
<path d="M2210 1360 l0 -30 95 0 95 0 -100 -150 c-55 -82 -100 -156 -100 -165
0 -13 22 -15 150 -15 l150 0 0 30 0 30 -100 0 c-55 0 -100 2 -100 5 0 3 43 69
95 148 52 78 95 150 95 159 0 16 -13 18 -140 18 l-140 0 0 -30z"/>
<path d="M2705 1375 c-68 -37 -105 -99 -104 -175 0 -120 75 -200 186 -200 67
0 152 55 153 98 0 21 -47 13 -87 -14 -31 -21 -46 -25 -83 -21 -51 6 -100 50
-100 92 l0 25 146 0 146 0 -7 47 c-9 63 -27 96 -71 129 -45 35 -133 44 -179
19z m148 -76 c15 -16 27 -38 27 -49 0 -19 -7 -20 -105 -20 -119 0 -126 6 -75
64 47 54 105 55 153 5z"/>
</g>
</svg>
